<?xml version="1.0" standalone="no"?>
<!DOCTYPE svg PUBLIC "-//W3C//DTD SVG 20010904//EN"
 "http://www.w3.org/TR/2001/REC-SVG-20010904/DTD/svg10.dtd">
<svg version="1.0" xmlns="http://www.w3.org/2000/svg"
 width="660.000000pt" height="660.000000pt" viewBox="0 0 660.000000 660.000000"
 preserveAspectRatio="xMidYMid meet">

<g transform="translate(0.000000,660.000000) scale(0.100000,-0.100000)"
fill="#000000" stroke="none">
<path d="M815 6147 c-95 -38 -130 -101 -146 -262 -15 -148 -5 -701 14 -810 42
-228 153 -418 337 -572 40 -34 142 -102 224 -151 493 -294 1028 -819 1391
-1367 352 -530 599 -1151 704 -1765 24 -141 51 -380 51 -453 0 -115 52 -211
135 -248 38 -18 103 -19 1301 -19 l1260 0 52 26 c61 30 108 94 118 161 15 102
-16 540 -62 853 -137 947 -528 1877 -1123 2668 -182 242 -307 382 -365 411
-80 40 -145 34 -269 -27 -172 -84 -311 -111 -477 -92 -190 21 -326 86 -455
215 -91 91 -144 175 -182 290 -25 76 -27 94 -33 345 -6 294 -9 305 -76 379
-48 54 -97 82 -214 125 -227 82 -477 123 -637 105 -100 -11 -171 -36 -297
-103 -168 -89 -225 -93 -404 -32 -162 56 -296 113 -527 223 -121 58 -236 107
-255 109 -19 2 -48 -2 -65 -9z m1706 -549 c84 -47 120 -149 83 -236 -48 -117
-176 -160 -281 -96 -88 55 -118 163 -70 254 53 100 169 134 268 78z"/>
<path d="M3923 5895 c-123 -34 -211 -105 -233 -186 -8 -28 -11 -134 -8 -318 4
-318 7 -332 99 -415 62 -56 141 -86 239 -93 246 -17 463 136 534 376 23 77 21
213 -4 292 -43 140 -169 270 -315 325 -88 33 -232 42 -312 19z"/>
<path d="M1808 2991 c-58 -19 -101 -56 -183 -159 -451 -565 -760 -1255 -860
-1922 -23 -152 -22 -237 3 -285 27 -52 54 -81 102 -105 38 -20 59 -20 935 -20
980 0 934 -3 999 58 65 61 76 128 56 333 -63 632 -304 1289 -671 1829 -113
167 -164 227 -210 251 -47 23 -130 33 -171 20z"/>
</g>
</svg>
